<?xml version="1.0" encoding="UTF-8"?>
<svg version="1.1" xmlns="http://www.w3.org/2000/svg" width="1200" height="1200">
<path d="M0 0 C0.66085602 0.00248749 1.32171204 0.00497498 2.00259399 0.00753784 C37.29981319 0.21283174 65.72486735 15.7944718 91.25 39.3125 C92.51681147 40.42127865 93.78748456 41.52566519 95.0625 42.625 C108.72281324 54.59481539 121.7573913 67.21195317 133.25 81.3125 C136.17421371 80.00422656 138.11139513 78.6582738 140.25390625 76.28515625 C140.82012695 75.66713135 141.38634766 75.04910645 141.96972656 74.41235352 C142.5778418 73.74002686 143.18595703 73.0677002 143.8125 72.375 C167.14404461 47.07198064 167.14404461 47.07198064 179.9296875 37.140625 C182.23869808 35.32140454 184.35603276 33.38447483 186.5 31.375 C199.67926485 19.5977846 216.20834539 10.26049245 233 4.875 C233.7312207 4.64006836 234.46244141 4.40513672 235.21582031 4.16308594 C246.31792459 0.8457241 257.5227993 -0.05592101 269.0625 0 C270.29009033 0.00563965 271.51768066 0.0112793 272.7824707 0.01708984 C305.39928579 0.4525268 332.08774733 14.52852801 354.73510742 37.31176758 C365.85640577 48.83747678 373.01412638 61.64925598 379.25 76.3125 C379.67152344 77.29992187 380.09304688 78.28734375 380.52734375 79.3046875 C388.98587195 100.81807619 389.16958109 125.01495421 384.25 147.3125 C383.92515625 148.78783203 383.92515625 148.78783203 383.59375 150.29296875 C379.20608552 167.97421194 370.61345114 185.8598422 358.25 199.3125 C357.67781738 199.93769531 357.10563477 200.56289063 356.51611328 201.20703125 C337.40514095 221.84477547 311.11711411 238.84392853 282.13232422 240.48950195 C235.44177329 241.34932061 203.17161113 225.79113405 169.3359375 194.1796875 C166.03211335 191.09598241 162.65438 188.10108957 159.25 185.12890625 C155.51099955 181.73313436 152.0415503 178.10702109 148.62109375 174.39453125 C147.97849609 173.69779297 147.33589844 173.00105469 146.67382812 172.28320312 C145.3419743 170.83610531 144.01388318 169.38553599 142.68945312 167.93164062 C142.04814453 167.23876953 141.40683594 166.54589844 140.74609375 165.83203125 C140.17044678 165.20401611 139.5947998 164.57600098 139.00170898 163.92895508 C137.18865948 162.25589574 135.49994672 161.29764181 133.25 160.3125 C132.05903249 161.47562671 130.87247296 162.64326672 129.6875 163.8125 C128.69556641 164.78703125 128.69556641 164.78703125 127.68359375 165.78125 C125.74056498 167.80224943 123.90843354 169.84932352 122.08203125 171.97265625 C117.76379431 176.94068283 113.15523632 181.59916538 108.5 186.25 C107.61183594 187.1373584 106.72367188 188.0247168 105.80859375 188.93896484 C100.64319724 194.05614847 95.47880602 198.94228669 89.72265625 203.390625 C87.95722644 204.76280741 86.23998237 206.19791458 84.55859375 207.671875 C61.60382148 227.78462785 32.97192215 240.46576305 2.32177734 240.55273438 C0.28309787 240.56234399 -1.75452924 240.5933733 -3.79296875 240.625 C-12.75641153 240.69751932 -21.05552937 239.60088918 -29.75 237.3125 C-30.48959961 237.11897949 -31.22919922 236.92545898 -31.99121094 236.72607422 C-63.5424767 227.84862702 -88.4627344 205.4647327 -104.4296875 177.35546875 C-118.85364885 150.03962485 -123.06330097 117.89537502 -114.61328125 88.02734375 C-113.48725316 84.39093804 -112.16101427 80.84848486 -110.75 77.3125 C-110.38132812 76.38824219 -110.01265625 75.46398437 -109.6328125 74.51171875 C-108.43354368 71.72031719 -107.12608089 69.02132066 -105.75 66.3125 C-105.30213135 65.42159668 -105.30213135 65.42159668 -104.84521484 64.51269531 C-99.4157309 53.85729959 -92.89100201 45.04231662 -84.75 36.3125 C-83.99976563 35.48105469 -83.24953125 34.64960938 -82.4765625 33.79296875 C-74.11586299 24.91943823 -63.62419515 17.76841106 -52.75 12.3125 C-52.17958984 12.0119873 -51.60917969 11.71147461 -51.02148438 11.40185547 C-46.13685064 8.87171144 -41.21940217 6.91209267 -36 5.1875 C-34.9171875 4.81044922 -34.9171875 4.81044922 -33.8125 4.42578125 C-22.68865493 0.71135047 -11.66868155 -0.05265851 0 0 Z M-47.8515625 72.98828125 C-60.32318767 88.25704046 -67.04123709 106.45092578 -65.75 126.3125 C-63.12693966 144.44672819 -55.45756407 162.61878103 -40.75 174.3125 C-37.18137795 176.82773361 -33.52116815 179.11447903 -29.75 181.3125 C-28.7290625 181.91771484 -28.7290625 181.91771484 -27.6875 182.53515625 C-13.21747227 190.46352561 3.69414158 190.37138898 19.3125 186.56640625 C36.37917556 181.46002061 49.35143725 170.09464928 62.25 158.3125 C64.06157222 156.68646576 65.874053 155.06144311 67.6875 153.4375 C71.60718356 150.01505543 71.60718356 150.01505543 75.25 146.3125 C75.25 145.6525 75.25 144.9925 75.25 144.3125 C76.24 143.9825 77.23 143.6525 78.25 143.3125 C79.86244386 141.72183714 79.86244386 141.72183714 81.4375 139.75 C83.96211574 136.76102576 86.56369395 133.97096162 89.375 131.25 C92.83154832 127.8539749 95.56450936 124.34073596 98.25 120.3125 C81.94327896 101.30713147 64.71759263 81.88542595 44.25 67.3125 C43.44820313 66.72726562 42.64640625 66.14203125 41.8203125 65.5390625 C13.19278724 45.46923162 -23.32618029 46.65195309 -47.8515625 72.98828125 Z M239.25 58.3125 C238.4146875 58.72113281 237.579375 59.12976563 236.71875 59.55078125 C215.43020676 70.40916178 196.16362237 90.24328146 180.88671875 108.40625 C179.6389894 109.85945268 178.33995348 111.26876605 177.01953125 112.65625 C176.27058594 113.4503125 175.52164062 114.244375 174.75 115.0625 C173.71359375 116.13757813 173.71359375 116.13757813 172.65625 117.234375 C171.04505697 119.17358125 171.04505697 119.17358125 171.328125 121.33203125 C172.42654582 123.69177428 173.74693401 125.32543843 175.5 127.25 C176.08265625 127.89839844 176.6653125 128.54679687 177.265625 129.21484375 C179.54847978 131.62801898 181.8998859 133.96471442 184.25 136.3125 C186.03466928 138.11898676 187.81847601 139.92632593 189.6015625 141.734375 C191.15918792 143.30679069 192.71780132 144.87821966 194.27685547 146.44921875 C195.3333857 147.51575583 196.38810772 148.58408752 197.44091797 149.65429688 C204.36969021 156.69401649 211.46956569 163.19964488 219.25 169.3125 C220.30834989 170.17839568 221.36587293 171.04530508 222.421875 171.9140625 C229.88742467 177.77338784 237.50598167 181.77462416 246.25 185.3125 C247.11625 185.67472656 247.9825 186.03695312 248.875 186.41015625 C260.91934583 190.56005105 278.53940305 190.32114192 290.25 185.3125 C291.37535156 184.83683594 292.50070312 184.36117187 293.66015625 183.87109375 C301.68513454 180.2658407 308.11079958 175.65045151 314.25 169.3125 C315.20132813 168.35730469 315.20132813 168.35730469 316.171875 167.3828125 C328.94761934 153.75912052 334.66940598 135.50461849 334.45703125 117.0859375 C333.56441977 100.81683017 327.35712054 85.23758679 316.25 73.3125 C315.64671875 72.61898437 315.0434375 71.92546875 314.421875 71.2109375 C304.52829599 60.44439564 289.30307117 52.14960216 274.55859375 51.37109375 C273.41583984 51.34208984 273.41583984 51.34208984 272.25 51.3125 C271.21552734 51.23708984 271.21552734 51.23708984 270.16015625 51.16015625 C259.60948752 50.66897055 248.53634965 53.38333252 239.25 58.3125 Z " fill="#011E88" transform="translate(465.75,376.6875)"/>
<path d="M0 0 C0.78333643 -0.00235223 1.56667286 -0.00470446 2.37374675 -0.00712797 C5.01447716 -0.01381694 7.65515836 -0.01335978 10.29589653 -0.01294994 C12.20200516 -0.01624863 14.10811308 -0.01997421 16.01422012 -0.02409142 C21.26480631 -0.03411896 26.51538107 -0.03782943 31.76597548 -0.04048073 C37.42395928 -0.04438153 43.08193401 -0.05396 48.73991203 -0.0626936 C62.40989726 -0.08246396 76.07988323 -0.09252477 89.74987918 -0.10142139 C96.18501732 -0.10580319 102.62015464 -0.11117027 109.05529213 -0.11641026 C130.44299812 -0.13342281 151.83070279 -0.14794244 173.21841431 -0.155159 C174.60159401 -0.15563375 175.98477371 -0.15610964 177.36795341 -0.15658666 C178.05388434 -0.15682303 178.73981527 -0.15705941 179.44653199 -0.15730295 C182.92178201 -0.15850414 186.39703202 -0.1597196 189.87228203 -0.16094494 C190.56195506 -0.16118509 191.25162809 -0.16142524 191.9622003 -0.16167267 C214.32193348 -0.1695652 236.68161361 -0.19299615 259.04132363 -0.22550088 C282.68236601 -0.25980555 306.32336794 -0.27950958 329.96443737 -0.28280324 C342.8510411 -0.28496968 355.73756686 -0.29373804 368.62414742 -0.31926441 C379.59764144 -0.34095087 390.57103855 -0.3490319 401.54455157 -0.33929763 C407.14373074 -0.33474706 412.74270987 -0.33668335 418.34186172 -0.35605907 C423.46924485 -0.37364909 428.59628137 -0.37272668 433.72366796 -0.35716178 C435.5770157 -0.3547794 437.43038718 -0.35914183 439.28369857 -0.37099043 C450.45106343 -0.43795438 460.31836146 -0.38973074 469.17989922 7.25922108 C474.87101428 13.58268226 477.06069669 20.974702 476.67989922 29.39984608 C475.59488361 37.31141822 472.66589274 42.78093304 466.38693047 47.73187733 C459.26099392 52.53152315 451.90566896 53.2871634 443.47023106 53.26285553 C442.30904341 53.26548509 442.30904341 53.26548509 441.12439743 53.26816776 C438.52705065 53.27282447 435.92975992 53.2703631 433.33241081 53.26793385 C431.45273728 53.26980198 429.57306414 53.27210269 427.69339162 53.27479917 C422.52520116 53.28092323 417.35702686 53.28078286 412.18883359 53.27960479 C406.61611517 53.27940094 401.04340196 53.28491806 395.47068596 53.28966236 C384.5516941 53.29797274 373.63270765 53.30071738 362.71371289 53.30127474 C353.83950359 53.3017497 344.96529608 53.30380348 336.09108734 53.30697536 C315.03184805 53.31434947 293.97260985 53.32050008 272.91336918 53.31997681 C272.23990796 53.31996123 271.56644675 53.31994565 270.87257761 53.3199296 C267.45920776 53.31984649 264.04583792 53.31974745 260.63246807 53.31964489 C259.95456239 53.31962495 259.27665672 53.319605 258.57820845 53.31958445 C257.20731805 53.31954401 255.83642765 53.31950222 254.46553724 53.31945906 C233.13651241 53.3188463 211.80750348 53.32635306 190.4784832 53.34003162 C166.514554 53.35539366 142.55063675 53.36398511 118.58670121 53.3630684 C105.89859979 53.36273621 93.2105163 53.36549319 80.52241898 53.37624645 C69.72024056 53.38534262 58.91808821 53.38753396 48.11590763 53.38073703 C42.60398245 53.3774674 37.09210729 53.37743115 31.58018684 53.38609028 C26.53382134 53.39393654 21.48754567 53.392543 16.44118241 53.38380615 C14.61617966 53.38226703 12.79117026 53.38410277 10.96617534 53.38966622 C-13.63901535 53.459703 -13.63901535 53.459703 -22.69510078 45.13422108 C-28.44282505 37.49468819 -30.68893057 30.65259089 -29.69510078 21.13422108 C-27.7368151 14.24105548 -23.79781414 7.73999848 -17.67166328 3.84906483 C-11.71176919 0.75833908 -6.70526925 -0.01363789 0 0 Z " fill="#011E88" transform="translate(376.69510078430176,265.86577892303467)"/>
<path d="M0 0 C1.92835251 -0.00461128 3.85670151 -0.01096572 5.78504318 -0.01890898 C11.07389507 -0.03559397 16.36245793 -0.0273596 21.6513108 -0.0149641 C27.35894526 -0.00591267 33.06653007 -0.01988378 38.77415466 -0.03088379 C49.95111558 -0.0486722 61.12796908 -0.04482765 72.30493421 -0.03323323 C81.38789864 -0.02420092 90.47083295 -0.02297403 99.55380058 -0.02732849 C100.84636509 -0.02794142 102.1389296 -0.02855436 103.47066272 -0.02918586 C106.09644208 -0.03046476 108.72222142 -0.03176161 111.34800076 -0.03307623 C135.26881898 -0.04415767 159.18957915 -0.03266486 183.11038802 -0.01170584 C204.94340997 0.00727842 226.7763386 0.00557574 248.60935974 -0.0135498 C273.14537288 -0.03497136 297.68132963 -0.04338644 322.21735138 -0.03110075 C324.83318356 -0.02982654 327.44901575 -0.02856906 330.06484795 -0.02732849 C331.99543631 -0.02640284 331.99543631 -0.02640284 333.96502646 -0.02545848 C343.03841948 -0.02200361 352.11177941 -0.02783687 361.18516731 -0.0372467 C372.24059264 -0.04846001 383.29590435 -0.04544052 394.35131664 -0.02412373 C399.9928012 -0.01360475 405.63409626 -0.00950612 411.27557945 -0.02272034 C416.43906851 -0.03463212 421.60219224 -0.02810145 426.76564812 -0.00681013 C428.63428064 -0.00233898 430.50294397 -0.0046218 432.37155671 -0.01431328 C434.91143049 -0.02647659 437.45005292 -0.01400327 439.98986149 0.00457001 C440.71550207 -0.00479466 441.44114266 -0.01415932 442.18877235 -0.02380776 C449.49516897 0.08299289 456.08610133 3.35161952 461.24241638 8.50793457 C466.16812166 16.05696164 468.17285311 22.47494468 467.24241638 31.50793457 C465.58576827 37.72936853 463.26579701 42.34220429 458.24241638 46.50793457 C457.03585388 47.59074707 457.03585388 47.59074707 455.80491638 48.69543457 C450.61699877 52.36493727 445.46002138 52.79982777 439.26439857 52.76241016 C438.47477852 52.76561664 437.68515846 52.76882312 436.87161052 52.77212676 C434.22150785 52.78043858 431.57163048 52.77449833 428.92152405 52.76863098 C427.00401357 52.77165112 425.0865043 52.77553991 423.16899717 52.78022355 C417.89624566 52.79052997 412.62356194 52.788315 407.35080481 52.78404295 C401.66562505 52.78158053 395.98046183 52.79058388 390.29528809 52.79808044 C379.15604484 52.81084294 368.01682569 52.8126192 356.87757637 52.81028018 C347.82505748 52.80849859 338.77254593 52.81024324 329.72002792 52.81450462 C328.43260767 52.81509981 327.14518742 52.815695 325.81875443 52.81630823 C323.20352448 52.81751995 320.58829453 52.81873409 317.97306459 52.8199506 C300.40827931 52.82774016 282.84349794 52.83165531 265.27871132 52.82763386 C264.59177914 52.82747748 263.90484696 52.82732111 263.19709866 52.82715999 C259.7154319 52.8263542 256.23376515 52.82550843 252.7520984 52.82464669 C252.06062507 52.8244756 251.36915174 52.82430451 250.65672468 52.82412824 C249.25839753 52.82378159 247.86007039 52.82343306 246.46174325 52.82308265 C224.70307139 52.81772528 202.94444006 52.8256561 181.18577576 52.84411621 C156.74098619 52.86483094 132.29622594 52.87552884 107.85142648 52.87154073 C94.90792627 52.86962645 81.96446298 52.87213823 69.02096939 52.88625526 C58.00209174 52.89815137 46.98327374 52.89959385 35.9643953 52.8874651 C30.34118382 52.88156398 24.71808154 52.88051104 19.09487724 52.8924675 C13.94798496 52.90328412 8.8012936 52.90027331 3.65441088 52.88620581 C1.79174162 52.88354723 -0.07094318 52.88596169 -1.93359725 52.89394168 C-4.46526871 52.90403565 -6.99624012 52.89563624 -9.52788353 52.88266468 C-10.25117297 52.88997403 -10.9744624 52.89728337 -11.7196697 52.90481421 C-20.24205346 52.81429299 -26.62572072 49.65514254 -32.76930237 43.88293457 C-37.16157045 38.63637467 -39.5743836 31.48476017 -39.13648987 24.60559082 C-37.60748635 16.14090125 -34.61703909 9.76894589 -27.75758362 4.50793457 C-19.54355653 -1.13971075 -9.51257313 -0.04940063 0 0 Z " fill="#011E88" transform="translate(385.75758361816406,675.4920654296875)"/>
<path d="M0 0 C6.60396196 0.06684172 6.60396196 0.06684172 9.578125 2.4609375 C11.41516756 5.11348961 12.89806141 7.81918854 14.375 10.6875 C15.59292289 12.65284577 16.82281112 14.61081058 18.0625 16.5625 C20.50942709 20.57870392 22.9284613 24.61080953 25.33984375 28.6484375 C25.86167236 29.52129395 26.38350098 30.39415039 26.92114258 31.29345703 C27.94561206 33.00909094 28.9677279 34.72613332 29.98706055 36.44482422 C33.28487497 41.97596517 36.75331496 47.36290344 40.375 52.6875 C44.12052171 48.31478008 46.96058679 43.56527416 49.875 38.625 C50.93736466 36.83846118 51.99986887 35.05200534 53.0625 33.265625 C53.87847656 31.88987305 53.87847656 31.88987305 54.7109375 30.48632812 C57.90687486 25.11100156 61.13929816 19.75750485 64.36523438 14.40014648 C67.0925162 9.8601627 69.76591094 5.29648044 72.375 0.6875 C77.655 0.6875 82.935 0.6875 88.375 0.6875 C88.375 29.0675 88.375 57.4475 88.375 86.6875 C85.52304778 88.11347611 83.05038825 87.8195252 79.875 87.8125 C78.7096875 87.81507813 77.544375 87.81765625 76.34375 87.8203125 C73.375 87.6875 73.375 87.6875 71.375 86.6875 C71.375 69.5275 71.375 52.3675 71.375 34.6875 C70.715 34.6875 70.055 34.6875 69.375 34.6875 C69.12878906 35.36039063 68.88257813 36.03328125 68.62890625 36.7265625 C67.10651656 40.32148893 65.24167672 43.67573225 63.3125 47.0625 C62.91836914 47.75786865 62.52423828 48.4532373 62.11816406 49.16967773 C59.33443058 54.05776803 56.50351116 58.91714095 53.625 63.75 C53.27300537 64.34409668 52.92101074 64.93819336 52.55834961 65.55029297 C51.51980258 67.27820567 50.45735063 68.98669774 49.375 70.6875 C48.96628662 71.33187012 48.55757324 71.97624023 48.13647461 72.64013672 C44.91142285 77.47003128 44.91142285 77.47003128 42.50512695 78.44555664 C40.07301399 78.73015033 38.64631419 78.62254785 36.375 77.6875 C34.87451172 75.96826172 34.87451172 75.96826172 33.4921875 73.7421875 C32.97954346 72.92717773 32.46689941 72.11216797 31.9387207 71.27246094 C31.42269287 70.41942383 30.90666504 69.56638672 30.375 68.6875 C29.88281982 67.88344727 29.39063965 67.07939453 28.88354492 66.25097656 C27.38598752 63.78044111 25.90961478 61.2982689 24.4375 58.8125 C18.17976969 48.07507367 18.17976969 48.07507367 11.375 37.6875 C11.045 37.6875 10.715 37.6875 10.375 37.6875 C10.38166183 38.28440643 10.38832367 38.88131287 10.39518738 39.49630737 C10.46140839 45.69263335 10.50674527 51.88885931 10.53979492 58.08544922 C10.55490853 60.39994385 10.57539996 62.71440974 10.60131836 65.02880859 C10.63758841 68.35000696 10.65470044 71.67082768 10.66796875 74.9921875 C10.68345261 76.03180634 10.69893646 77.07142517 10.71488953 78.14254761 C10.71511612 79.10339264 10.71534271 80.06423767 10.71557617 81.05419922 C10.72223801 81.90247284 10.72889984 82.75074646 10.73576355 83.62472534 C10.61671158 84.30544098 10.49765961 84.98615662 10.375 85.6875 C7.01619635 87.92670243 5.85923396 87.93353334 1.9375 87.875 C0.99003906 87.86855469 0.04257812 87.86210938 -0.93359375 87.85546875 C-3.32225365 87.70639418 -5.32665548 87.30167843 -7.625 86.6875 C-7.64812283 75.62215142 -7.66591478 64.55680855 -7.67681217 53.49144077 C-7.68204113 48.35390434 -7.68913901 43.21638437 -7.70043945 38.07885742 C-7.71126787 33.1251859 -7.71727674 28.17153026 -7.71987724 23.21784782 C-7.72173157 21.32352384 -7.72535234 19.42920076 -7.73073006 17.5348835 C-7.73793989 14.89115614 -7.73899097 12.24749529 -7.73852539 9.60375977 C-7.74212067 8.81254227 -7.74571594 8.02132477 -7.74942017 7.20613098 C-7.73614157 0.28433501 -6.82963613 0.43853453 0 0 Z " fill="#011E88" transform="translate(562.625,799.3125)"/>
<path d="M0 0 C4.5475493 0.01387858 7.47000066 0.29684539 10.75390625 3.45703125 C13.2115529 6.22471174 15.38444599 9.18703373 17.48779297 12.22998047 C18.9505345 14.34589985 20.52994286 16.35761094 22.125 18.375 C22.66640625 19.08269531 23.2078125 19.79039062 23.765625 20.51953125 C26.51015508 23.9963204 29.40456952 27.34385474 32.28369141 30.70898438 C36.27662332 35.40269428 40.0895591 40.22332645 43.83300781 45.11791992 C46.56034443 48.6504949 49.41537695 51.79192123 52.625 54.875 C52.51671875 52.96654297 52.51671875 52.96654297 52.40625 51.01953125 C51.50475027 34.29687159 50.84533585 17.55935144 52.625 0.875 C58.235 0.875 63.845 0.875 69.625 0.875 C69.625 29.255 69.625 57.635 69.625 86.875 C54.625 86.875 54.625 86.875 51.03515625 84.3828125 C49.80273438 82.76171875 49.80273438 82.76171875 48.6875 81 C48.25115234 80.40574219 47.81480469 79.81148437 47.36523438 79.19921875 C46.4888428 78.00238444 45.63090825 76.79178063 44.79345703 75.56738281 C43.18649335 73.23987085 41.41362973 71.0647164 39.625 68.875 C38.99335938 68.07707031 38.36171875 67.27914062 37.7109375 66.45703125 C35.27790242 63.445353 32.76664898 60.5041171 30.25 57.5625 C25.95307865 52.53594103 21.85806156 47.38672647 17.88525391 42.1003418 C15.91281131 39.48679343 13.95168427 37.20168427 11.625 34.875 C11.295 52.035 10.965 69.195 10.625 86.875 C4.65725721 88.8642476 -1.27505786 87.76912544 -7.375 86.875 C-7.39812283 75.80965142 -7.41591478 64.74430855 -7.42681217 53.67894077 C-7.43204113 48.54140434 -7.43913901 43.40388437 -7.45043945 38.26635742 C-7.46126787 33.3126859 -7.46727674 28.35903026 -7.46987724 23.40534782 C-7.47173157 21.51102384 -7.47535234 19.61670076 -7.48073006 17.7223835 C-7.48793989 15.07865614 -7.48899097 12.43499529 -7.48852539 9.79125977 C-7.49212067 9.00004227 -7.49571594 8.20882477 -7.49942017 7.39363098 C-7.48646822 0.64210921 -6.69251052 0.59521243 0 0 Z " fill="#011E88" transform="translate(339.375,799.125)"/>
<path d="M0 0 C7.569375 -0.04125 15.13875 -0.0825 22.9375 -0.125 C25.30929443 -0.14320801 27.68108887 -0.16141602 30.12475586 -0.18017578 C32.02978286 -0.18602354 33.93481239 -0.19111843 35.83984375 -0.1953125 C36.8086145 -0.20554443 37.77738525 -0.21577637 38.7755127 -0.22631836 C51.74953761 -0.22960834 63.33483113 3.17318787 72.9375 12.3125 C81.37967855 21.48745354 85.79866581 33.08639992 85.2890625 45.6875 C83.72394128 58.20846975 79.42362107 68.46366793 70 77 C55.04155682 87.57545848 39.48986127 87.17666412 21.82373047 87.13037109 C19.34466654 87.12493347 16.86577774 87.13038841 14.38671875 87.13671875 C12.80729127 87.13605921 11.22786389 87.13478065 9.6484375 87.1328125 C8.90894867 87.13483673 8.16945984 87.13686096 7.40756226 87.13894653 C2.23002299 87.11501149 2.23002299 87.11501149 0 86 C0 57.62 0 29.24 0 0 Z M18 15 C18 33.48 18 51.96 18 71 C40.10887126 72.62924998 40.10887126 72.62924998 59.56640625 63.6796875 C66.84539076 55.15117704 66.7090787 45.64660816 66 35 C64.61435322 28.36200295 60.76029756 24.25816625 55.90234375 19.7265625 C44.05438867 12.67838464 31.42917147 15 18 15 Z " fill="#011E88" transform="translate(885,800)"/>
<path d="M0 0 C5.90410675 -0.07481809 11.80793032 -0.12891456 17.71240234 -0.16479492 C19.71603205 -0.17977142 21.71962961 -0.20015981 23.72314453 -0.22631836 C53.08888692 -0.59979788 53.08888692 -0.59979788 65 10 C71.65117583 17.21456955 72.46636606 24.76803657 72.30859375 34.234375 C71.64350239 42.35017334 68.83159824 47.93277007 62.87890625 53.4296875 C60.61402718 55.32258019 58.31335337 57.16677658 56 59 C56.33733154 59.47308594 56.67466309 59.94617188 57.0222168 60.43359375 C58.57968762 62.62071445 60.13360482 64.81033762 61.6875 67 C62.21794922 67.74378906 62.74839844 68.48757813 63.29492188 69.25390625 C65.89232143 72.91894856 68.44876123 76.60670248 70.89453125 80.375 C71.3016333 81.00148438 71.70873535 81.62796875 72.12817383 82.2734375 C73 84 73 84 73 87 C57.21908196 88.66913556 57.21908196 88.66913556 52.3046875 84.97265625 C50.25463383 82.08017162 48.62748003 79.14873758 47 76 C45.57280957 73.75326715 44.06680659 71.57218336 42.5625 69.375 C41.90378906 68.37210938 41.24507812 67.36921875 40.56640625 66.3359375 C39.20018547 64.13569502 39.20018547 64.13569502 38 63 C36.44051458 62.84313751 34.87457332 62.74923361 33.30859375 62.68359375 C32.36435547 62.64169922 31.42011719 62.59980469 30.44726562 62.55664062 C29.45404297 62.51732422 28.46082031 62.47800781 27.4375 62.4375 C25.94186523 62.37272461 25.94186523 62.37272461 24.41601562 62.30664062 C21.9441585 62.20019702 19.4721969 62.09818072 17 62 C17.00785522 63.08269165 17.00785522 63.08269165 17.01586914 64.18725586 C17.03657358 67.43732849 17.04963918 70.68738728 17.0625 73.9375 C17.07087891 75.07380859 17.07925781 76.21011719 17.08789062 77.38085938 C17.09272461 79.00024414 17.09272461 79.00024414 17.09765625 80.65234375 C17.10551147 82.15269165 17.10551147 82.15269165 17.11352539 83.68334961 C17 86 17 86 16 87 C13.3226862 87.09981214 10.67695825 87.13879875 8 87.125 C6.87464844 87.13080078 6.87464844 87.13080078 5.7265625 87.13671875 C0.12661053 87.12661053 0.12661053 87.12661053 -1 86 C-1.10041646 83.39376921 -1.13617054 80.81401452 -1.12939453 78.20727539 C-1.13114685 77.39104202 -1.13289917 76.57480865 -1.13470459 75.73384094 C-1.13912436 73.02175807 -1.13618441 70.30973984 -1.1328125 67.59765625 C-1.13348557 65.72057584 -1.13445562 63.84349552 -1.13571167 61.96641541 C-1.13718886 58.02618584 -1.13503364 54.0859789 -1.13037109 50.14575195 C-1.12467771 45.08687314 -1.1279502 40.02804742 -1.13394356 34.96917057 C-1.13755193 31.09081114 -1.13640924 27.21246435 -1.13381577 23.33410454 C-1.13314706 21.46852042 -1.13397297 19.60293516 -1.13629532 17.73735237 C-1.13882591 15.13224357 -1.13497528 12.52722147 -1.12939453 9.92211914 C-1.13141876 9.1454187 -1.13344299 8.36871826 -1.13552856 7.56848145 C-1.11426338 2.22852675 -1.11426338 2.22852675 0 0 Z M17 15 C17 25.23 17 35.46 17 46 C24.16351212 49.58175606 37.59835908 47.2167351 45 45 C49.37740942 42.73312727 52.21954804 40.6489579 54 36 C54.65862967 30.68217528 54.65060637 26.40130603 52.375 21.5 C47.61185928 16.48616766 42.31509733 15.13707589 35.54833984 14.92211914 C32.7396604 14.90175911 29.93367525 14.91295396 27.125 14.9375 C22.113125 14.9684375 22.113125 14.9684375 17 15 Z " fill="#011E88" transform="translate(703,922)"/>
<path d="M0 0 C10.539375 -0.020625 21.07875 -0.04125 31.9375 -0.0625 C36.93571899 -0.07615601 36.93571899 -0.07615601 42.03491211 -0.09008789 C44.65738891 -0.09300675 47.27986616 -0.09555538 49.90234375 -0.09765625 C50.58808975 -0.10026962 51.27383575 -0.102883 51.98036194 -0.10557556 C53.99072139 -0.11285634 56.00110198 -0.1133384 58.01147461 -0.11352539 C59.14620712 -0.115746 60.28093964 -0.11796661 61.45005798 -0.12025452 C64 0 64 0 65 1 C65.0989294 3.16480797 65.129711 5.33293785 65.125 7.5 C65.12886719 9.27890625 65.12886719 9.27890625 65.1328125 11.09375 C65 14 65 14 64 15 C62.55710213 15.09295815 61.10970215 15.11746513 59.66381836 15.11352539 C58.28249977 15.11341209 58.28249977 15.11341209 56.87327576 15.11329651 C55.87224319 15.10813522 54.87121063 15.10297394 53.83984375 15.09765625 C52.82024063 15.0962413 51.80063751 15.09482635 50.75013733 15.09336853 C47.47922893 15.08775097 44.20838787 15.0751955 40.9375 15.0625 C38.72591244 15.05748726 36.51432382 15.05292396 34.30273438 15.04882812 C28.86846346 15.03777583 23.43424316 15.02049944 18 15 C18 21.6 18 28.2 18 35 C31.53 35 45.06 35 59 35 C59 39.95 59 44.9 59 50 C45.47 50 31.94 50 18 50 C18 56.93 18 63.86 18 71 C33.84 71 49.68 71 66 71 C67.29004296 73.58008592 67.20410224 75.55741574 67.25 78.4375 C67.27578125 79.40558594 67.3015625 80.37367188 67.328125 81.37109375 C66.94163674 84.46760091 66.41197745 85.11592041 64 87 C62.09370422 87.34851074 62.09370422 87.34851074 59.9152832 87.31054688 C58.68493599 87.29997253 58.68493599 87.29997253 57.42973328 87.28918457 C56.09746452 87.25431946 56.09746452 87.25431946 54.73828125 87.21875 C53.34528557 87.19983704 53.34528557 87.19983704 51.92414856 87.18054199 C48.94893119 87.1358564 45.974741 87.06913365 43 87 C41.08253326 86.96410283 39.16505268 86.92893678 37.24755859 86.89453125 C31.56018516 86.78526779 25.87410337 86.64455765 20.1875 86.5 C10.1946875 86.2525 10.1946875 86.2525 0 86 C0 57.62 0 29.24 0 0 Z " fill="#011E88" transform="translate(799,800)"/>
<path d="M0 0 C8.19690561 -0.0231271 16.39379768 -0.04091696 24.59072781 -0.05181217 C28.39651577 -0.0570402 32.20228148 -0.06413638 36.00805664 -0.07543945 C39.67792544 -0.0862712 43.34777278 -0.09227744 47.01765633 -0.09487724 C48.42074992 -0.09673097 49.82384229 -0.1003506 51.2269268 -0.10573006 C53.1856968 -0.11294419 55.1444882 -0.11340809 57.10327148 -0.11352539 C58.22023911 -0.115746 59.33720673 -0.11796661 60.48802185 -0.12025452 C63 0 63 0 64 1 C64.0989294 3.16480797 64.129711 5.33293785 64.125 7.5 C64.12886719 9.27890625 64.12886719 9.27890625 64.1328125 11.09375 C64 14 64 14 63 15 C61.55710213 15.09295815 60.10970215 15.11746513 58.66381836 15.11352539 C57.28249977 15.11341209 57.28249977 15.11341209 55.87327576 15.11329651 C54.87224319 15.10813522 53.87121063 15.10297394 52.83984375 15.09765625 C51.82024063 15.0962413 50.80063751 15.09482635 49.75013733 15.09336853 C46.47922893 15.08775097 43.20838787 15.0751955 39.9375 15.0625 C37.72591244 15.05748726 35.51432382 15.05292396 33.30273438 15.04882812 C27.86846346 15.03777583 22.43424316 15.02049944 17 15 C17 21.6 17 28.2 17 35 C30.53 35 44.06 35 58 35 C59 40 59 40 58 50 C44.47 50 30.94 50 17 50 C17.33 56.93 17.66 63.86 18 71 C21.29742188 70.96519531 24.59484375 70.93039062 27.9921875 70.89453125 C31.1759352 70.87115384 34.35967344 70.8529269 37.54345703 70.83520508 C39.76094828 70.82009247 41.97840953 70.79960174 44.19580078 70.77368164 C47.37800489 70.73740707 50.55981482 70.72029861 53.7421875 70.70703125 C54.73805878 70.69154739 55.73393005 70.67606354 56.75997925 70.66011047 C57.68078278 70.65988388 58.6015863 70.65965729 59.55029297 70.65942383 C60.3630368 70.65276199 61.17578064 70.64610016 62.01315308 70.63923645 C62.66881256 70.75828842 63.32447205 70.87734039 64 71 C66.25414782 74.38122173 66.24544447 75.6064728 66.1875 79.5625 C66.18105469 80.53316406 66.17460938 81.50382813 66.16796875 82.50390625 C66 85 66 85 65 87 C43.55 87 22.1 87 0 87 C-0.67677238 81.58582094 -1.14553746 76.56325447 -1.12939453 71.1628418 C-1.13114685 70.4252211 -1.13289917 69.6876004 -1.13470459 68.92762756 C-1.13906422 66.51813321 -1.1362076 64.1087137 -1.1328125 61.69921875 C-1.13348687 60.01390061 -1.13445801 58.32858257 -1.13571167 56.64326477 C-1.13718034 53.12569241 -1.13505952 49.60814556 -1.13037109 46.09057617 C-1.12465228 41.58016544 -1.12797162 37.06981393 -1.13394356 32.55940533 C-1.1375529 29.08591768 -1.13640924 25.61244414 -1.13381577 22.13895607 C-1.13314867 20.47515671 -1.13396734 18.81135607 -1.13629532 17.14755821 C-1.13883033 14.82839926 -1.13497022 12.50933726 -1.12939453 10.19018555 C-1.12859894 8.87084518 -1.12780334 7.55150482 -1.12698364 6.19218445 C-1 3 -1 3 0 0 Z " fill="#011E88" transform="translate(617,922)"/>
<path d="M0 0 C5.94 0 11.88 0 18 0 C18.01458252 1.65451172 18.02916504 3.30902344 18.04418945 5.01367188 C18.10230564 11.17144017 18.17953872 17.3288479 18.26245117 23.48632812 C18.29725787 26.14782607 18.32368761 28.80903143 18.34643555 31.47070312 C18.38009589 35.30368497 18.43242014 39.13603516 18.48828125 42.96875 C18.49467117 44.15239136 18.5010611 45.33603271 18.50764465 46.55554199 C18.64759641 54.4782853 19.03657653 60.90187546 24.75 66.875 C30.27514721 70.48759625 35.45107742 71.56456229 42 71 C47.13327875 69.80601156 51.96707212 68.54939182 55 64 C58.03606603 56.47252801 58.46625811 49.24718954 58.51171875 41.2109375 C58.52966995 40.02650055 58.54762115 38.8420636 58.56611633 37.62173462 C58.61989989 33.8728583 58.65401292 30.12410696 58.6875 26.375 C58.7207012 23.81899315 58.75519342 21.26300271 58.79101562 18.70703125 C58.87560792 12.47146633 58.94409194 6.23588458 59 0 C61.81256281 -0.02684312 64.62487241 -0.04676188 67.4375 -0.0625 C68.23994141 -0.07087891 69.04238281 -0.07925781 69.86914062 -0.08789062 C71.91295221 -0.0965143 73.95683902 -0.0522815 76 0 C77.66737583 1.66737583 77.14446495 3.68057249 77.16113281 5.97192383 C77.17074036 7.03425735 77.1803479 8.09659088 77.19024658 9.19111633 C77.19449646 10.35136826 77.19874634 11.51162018 77.203125 12.70703125 C77.20882507 13.89793869 77.21452515 15.08884613 77.22039795 16.31584167 C77.229872 18.848817 77.23639142 21.38180479 77.24023438 23.91479492 C77.24986314 27.75787634 77.28083206 31.60040541 77.3125 35.44335938 C77.31903757 37.90624683 77.32428507 40.36913811 77.328125 42.83203125 C77.3404718 43.97001663 77.3528186 45.10800201 77.36553955 46.2804718 C77.33132673 58.78646207 75.06404576 69.42774951 66.37109375 78.74609375 C57.53473042 86.96739699 47.28482428 88.30892954 35.61328125 88.22265625 C24.46181727 87.53548496 14.5505084 83.31334327 7 75 C0.55243404 65.02819773 -0.2945248 55.3364484 -0.1953125 43.75 C-0.1924826 42.49614502 -0.18965271 41.24229004 -0.18673706 39.95043945 C-0.17748144 36.6427535 -0.15956217 33.33526818 -0.1373291 30.02764893 C-0.11674364 26.64215531 -0.10770839 23.25663213 -0.09765625 19.87109375 C-0.07566871 13.24730822 -0.04117636 6.62369291 0 0 Z " fill="#011E88" transform="translate(231,800)"/>
<path d="M0 0 C1.051875 0.763125 2.10375 1.52625 3.1875 2.3125 C1.64691767 7.32758715 0.15818161 11.9272081 -2.8125 16.3125 C-3.864375 15.88324219 -3.864375 15.88324219 -4.9375 15.4453125 C-15.32548749 11.3522196 -27.03077996 7.2589329 -38 11.6875 C-40.83786907 13.16552948 -40.83786907 13.16552948 -42.8125 15.3125 C-43.50213027 19.40082126 -43.50213027 19.40082126 -42.8125 23.3125 C-37.92259512 28.03823738 -31.31984084 29.51534965 -24.875 30.875 C-13.8926565 33.25296726 -2.46604454 36.56980978 4.1875 46.3125 C7.15780521 52.63914287 7.35805644 59.41971929 5.34765625 66.10546875 C1.67944599 74.26939799 -3.85821 78.34727846 -12 81.6875 C-27.4811008 86.35733776 -44.87293707 84.01659441 -59.125 76.8125 C-61.42385557 75.55471581 -62.53764923 74.87193077 -63.6953125 72.515625 C-63.86247241 69.37301877 -62.7457354 67.37083594 -61.375 64.5625 C-60.90191406 63.57765625 -60.42882812 62.5928125 -59.94140625 61.578125 C-59.56886719 60.83046875 -59.19632813 60.0828125 -58.8125 59.3125 C-55.10046911 59.89930417 -52.29258813 60.95742779 -49 62.75 C-39.93493329 67.36251924 -30.39330631 69.01265011 -20.26953125 66.7421875 C-16.60549575 65.47412421 -14.99558544 64.58712815 -12.8125 61.3125 C-12.31239476 58.35480823 -12.31239476 58.35480823 -12.8125 55.3125 C-15.54700534 51.97942783 -17.98398172 50.58846103 -22.0625 49.3125 C-23.11695313 48.97992187 -24.17140625 48.64734375 -25.2578125 48.3046875 C-28.44850992 47.41409723 -31.63629636 46.64825524 -34.86474609 45.91479492 C-45.48903109 43.46833118 -54.6153467 39.75687016 -60.8125 30.3125 C-62.9326833 23.9519501 -63.02987604 15.93850875 -60.125 9.8125 C-55.93630999 2.81665282 -49.77328659 -1.91439858 -42.0625 -4.4375 C-28.8106837 -7.72337271 -11.79382636 -7.24507308 0 0 Z " fill="#011E88" transform="translate(853.8125,926.6875)"/>
<path d="M0 0 C1.11696762 0.00222061 2.23393524 0.00444122 3.38475037 0.00672913 C4.64598221 0.00680466 5.90721405 0.00688019 7.20666504 0.00695801 C8.59341979 0.01206542 9.98017414 0.01728142 11.3669281 0.02259827 C12.77797394 0.0244625 14.18902042 0.02588638 15.60006714 0.02688599 C19.3204272 0.03071072 23.04074845 0.04054062 26.76109314 0.05158997 C30.55482966 0.06180504 34.34857243 0.06638381 38.14231873 0.07142639 C45.59090416 0.08216294 53.03945758 0.09923882 60.48802185 0.12025452 C61.86054917 2.86530915 61.6203144 5.12352864 61.61302185 8.18275452 C61.61688904 9.80890686 61.61688904 9.80890686 61.62083435 11.46791077 C61.48802185 14.12025452 61.48802185 14.12025452 60.48802185 15.12025452 C59.04512398 15.21321267 57.59772401 15.23771965 56.15184021 15.23377991 C54.77052162 15.23366661 54.77052162 15.23366661 53.36129761 15.23355103 C52.36026505 15.22838974 51.35923248 15.22322845 50.3278656 15.21791077 C49.30826248 15.21649582 48.28865936 15.21508087 47.23815918 15.21362305 C43.96725078 15.20800548 40.69640972 15.19545002 37.42552185 15.18275452 C35.21393429 15.17774178 33.00234567 15.17317848 30.79075623 15.16908264 C25.35646433 15.15887931 19.92231887 15.13930737 14.48802185 15.12025452 C14.48802185 23.04025452 14.48802185 30.96025452 14.48802185 39.12025452 C17.36392029 39.10865295 20.23981873 39.09705139 23.2028656 39.08509827 C25.9762206 39.07730827 28.74957439 39.07123118 31.52293396 39.06532288 C33.4562077 39.06028196 35.38947761 39.05344933 37.32273865 39.04481506 C40.09529057 39.03273887 42.86779226 39.02702395 45.6403656 39.02259827 C46.94505043 39.01485634 46.94505043 39.01485634 48.27609253 39.00695801 C50.34707999 39.00676266 52.41796509 39.05817284 54.48802185 39.12025452 C55.48802185 40.12025452 55.48802185 40.12025452 55.5856781 43.28041077 C55.57407654 44.5681842 55.56247498 45.85595764 55.55052185 47.18275452 C55.54149841 48.47310608 55.53247498 49.76345764 55.5231781 51.09291077 C55.51157654 52.0919342 55.49997498 53.09095764 55.48802185 54.12025452 C52.15646934 55.78603077 48.42266126 55.24033307 44.76145935 55.21791077 C43.46723557 55.21578835 43.46723557 55.21578835 42.14686584 55.21362305 C39.38554955 55.20801639 36.62431373 55.19546279 33.86302185 55.18275452 C31.99323135 55.17774037 30.12343959 55.17317732 28.25364685 55.16908264 C23.66504908 55.15889481 19.07662577 55.13932074 14.48802185 55.12025452 C14.48802185 65.68025452 14.48802185 76.24025452 14.48802185 87.12025452 C11.70364685 87.14087952 8.91927185 87.16150452 6.05052185 87.18275452 C5.17210632 87.19185852 4.2936908 87.20096252 3.38865662 87.21034241 C1.42156211 87.21748542 -0.54551436 87.17057345 -2.51197815 87.12025452 C-4.28668062 85.34555204 -3.63818676 82.97635498 -3.64750671 80.61273193 C-3.64548248 79.82308548 -3.64345825 79.03343903 -3.64137268 78.21986389 C-3.643125 77.39227066 -3.64487732 76.56467743 -3.64668274 75.71200562 C-3.65110208 72.9626509 -3.64816298 70.21335995 -3.64479065 67.46400452 C-3.64546367 65.56210823 -3.64643367 63.66021203 -3.64768982 61.75831604 C-3.6491669 57.76681196 -3.6470119 53.77533022 -3.64234924 49.78382874 C-3.63665195 44.65534945 -3.6399309 39.52692249 -3.64592171 34.39844513 C-3.64952704 30.46951398 -3.64838886 26.54059533 -3.64579391 22.61166382 C-3.64512457 20.7201334 -3.64595334 18.82860187 -3.64827347 16.93707275 C-3.65079953 14.29823275 -3.64696006 11.65947871 -3.64137268 9.02064514 C-3.64339691 8.23099869 -3.64542114 7.44135223 -3.64750671 6.6277771 C-3.62205658 0.17339668 -3.62205658 0.17339668 0 0 Z " fill="#011E88" transform="translate(344.51197814941406,921.8797454833984)"/>
<path d="M0 0 C24.09 0 48.18 0 73 0 C74 9 74 9 73 15 C64.09 15 55.18 15 46 15 C46.00523682 17.11003418 46.01047363 19.22006836 46.01586914 21.39404297 C46.03241723 28.35501542 46.04347613 35.31598874 46.05181217 42.27697563 C46.05703728 46.49862582 46.06412822 50.72025591 46.07543945 54.94189453 C46.0862815 59.01376672 46.09227964 63.08561953 46.09487724 67.15750504 C46.09672911 68.71328156 46.10034518 70.26905698 46.10573006 71.82482529 C46.11295795 73.99896307 46.1139902 76.17302016 46.11352539 78.34716797 C46.115746 79.58626923 46.11796661 80.82537048 46.12025452 82.10202026 C46 85 46 85 45 87 C42.35409986 87.02684679 39.70846904 87.04676357 37.0625 87.0625 C36.30775391 87.07087891 35.55300781 87.07925781 34.77539062 87.08789062 C32.85005687 87.09652441 30.92464419 87.05224333 29 87 C28 86 28 86 27.87974548 83.18431091 C27.8830764 81.29568077 27.8830764 81.29568077 27.88647461 79.36889648 C27.88632858 78.67624695 27.88618256 77.98359741 27.8860321 77.2699585 C27.88673126 74.97030554 27.89452372 72.67073263 27.90234375 70.37109375 C27.90420792 68.78068588 27.90563183 67.19027743 27.90663147 65.59986877 C27.91045671 61.4060407 27.92028705 57.21224705 27.93133545 53.01843262 C27.94154943 48.74211086 27.94612906 44.46578356 27.95117188 40.18945312 C27.96190932 31.79295116 27.97950616 23.39648382 28 15 C18.76 15 9.52 15 0 15 C0 10.05 0 5.1 0 0 Z " fill="#011E88" transform="translate(527,922)"/>
<path d="M0 0 C1.27685165 0.00222061 2.55370331 0.00444122 3.86924744 0.00672913 C4.57165054 0.0065831 5.27405365 0.00643707 5.9977417 0.00628662 C8.32985983 0.00698579 10.66189904 0.01477835 12.9940033 0.02259827 C14.60683142 0.02446243 16.21966012 0.02588634 17.83248901 0.02688599 C22.08550062 0.03071129 26.33847828 0.04054167 30.59147644 0.05158997 C34.92812135 0.06180383 39.26477171 0.06638355 43.60142517 0.07142639 C52.11641474 0.08216393 60.63137667 0.09924049 69.14634705 0.12025452 C70.51887436 2.86530915 70.2786396 5.12352864 70.27134705 8.18275452 C70.27521423 9.80890686 70.27521423 9.80890686 70.27915955 11.46791077 C70.14634705 14.12025452 70.14634705 14.12025452 69.14634705 15.12025452 C60.23634705 15.12025452 51.32634705 15.12025452 42.14634705 15.12025452 C42.14634705 38.22025452 42.14634705 61.32025452 42.14634705 85.12025452 C37.14634705 87.12025452 37.14634705 87.12025452 24.14634705 86.12025452 C24.14634705 62.69025452 24.14634705 39.26025452 24.14634705 15.12025452 C14.90634705 15.12025452 5.66634705 15.12025452 -3.85365295 15.12025452 C-3.85365295 0.16239507 -3.85365295 0.16239507 0 0 Z " fill="#011E88" transform="translate(713.8536529541016,799.8797454833984)"/>
<path d="M0 0 C1.12535156 0.00580078 1.12535156 0.00580078 2.2734375 0.01171875 C3.02367187 0.00785156 3.77390625 0.00398437 4.546875 0 C10.14682697 0.01010822 10.14682697 0.01010822 11.2734375 1.13671875 C11.36773092 3.31477594 11.39086288 5.49593155 11.38696289 7.67602539 C11.38710892 8.35892136 11.38725494 9.04181732 11.3874054 9.7454071 C11.38670626 12.01259489 11.3789139 14.27970149 11.37109375 16.546875 C11.36922957 18.11486262 11.36780567 19.68285082 11.36680603 21.25083923 C11.36298084 25.38548378 11.35315056 29.52009341 11.34210205 33.65472412 C11.33188794 37.87072273 11.32730841 42.08672697 11.32226562 46.30273438 C11.31152829 54.58074522 11.29445186 62.85872765 11.2734375 71.13671875 C12.57079834 71.13148193 13.86815918 71.12624512 15.20483398 71.12084961 C19.99991165 71.10280406 24.7949863 71.09128838 29.59008789 71.08178711 C31.66886906 71.07674587 33.74764666 71.06991301 35.82641602 71.0612793 C38.80746336 71.04920453 41.78846399 71.04348851 44.76953125 71.0390625 C46.17264809 71.03132057 46.17264809 71.03132057 47.60411072 71.02342224 C48.46492752 71.02334671 49.32574432 71.02327118 50.21264648 71.02319336 C50.97431625 71.02097275 51.73598602 71.01875214 52.52073669 71.01646423 C54.2734375 71.13671875 54.2734375 71.13671875 55.2734375 72.13671875 C55.37253052 74.4683193 55.40314254 76.80301817 55.3984375 79.13671875 C55.40230469 81.05484375 55.40230469 81.05484375 55.40625 83.01171875 C55.2734375 86.13671875 55.2734375 86.13671875 54.2734375 87.13671875 C52.40707962 87.23582435 50.53695556 87.26471136 48.66796875 87.26611328 C47.47002686 87.26926544 46.27208496 87.2724176 45.0378418 87.27566528 C43.73371338 87.27364105 42.42958496 87.27161682 41.0859375 87.26953125 C39.74454735 87.27020435 38.40315731 87.27117443 37.06176758 87.27243042 C34.24722129 87.27390711 31.43270668 87.27175379 28.61816406 87.26708984 C25.00303119 87.26139256 21.38797255 87.26467172 17.77284241 87.27066231 C15.00198808 87.27426872 12.23115148 87.27312897 9.46029663 87.27053452 C7.47654167 87.26953908 5.49278603 87.27258616 3.5090332 87.27566528 C2.31109131 87.27251312 1.11314941 87.26936096 -0.12109375 87.26611328 C-1.18175049 87.26531769 -2.24240723 87.26452209 -3.33520508 87.26370239 C-5.7265625 87.13671875 -5.7265625 87.13671875 -6.7265625 86.13671875 C-6.82699521 83.49471814 -6.862731 80.87883285 -6.85595703 78.23632812 C-6.85770935 77.40873489 -6.85946167 76.58114166 -6.86126709 75.72846985 C-6.86568643 72.97911513 -6.86274733 70.22982418 -6.859375 67.48046875 C-6.86004802 65.57857246 -6.86101802 63.67667626 -6.86227417 61.77478027 C-6.86375125 57.7832762 -6.86159625 53.79179446 -6.85693359 49.80029297 C-6.8512363 44.67181368 -6.85451525 39.54338673 -6.86050606 34.41490936 C-6.86411139 30.48597821 -6.86297322 26.55705957 -6.86037827 22.62812805 C-6.85970892 20.73659763 -6.86053769 18.8450661 -6.86285782 16.95353699 C-6.86538388 14.31469698 -6.86154441 11.67594294 -6.85595703 9.03710938 C-6.85798126 8.24746292 -6.86000549 7.45781647 -6.86209106 6.64424133 C-6.83640799 0.13078501 -6.52446352 0.01177701 0 0 Z " fill="#011E88" transform="translate(472.7265625,921.86328125)"/>
<path d="M0 0 C5.61 0 11.22 0 17 0 C18 1 18 1 18.12025452 3.77772522 C18.1169236 5.63970802 18.1169236 5.63970802 18.11352539 7.53930664 C18.11367142 8.22220261 18.11381744 8.90509857 18.1139679 9.60868835 C18.11326876 11.87587614 18.1054764 14.14298274 18.09765625 16.41015625 C18.09579207 17.97814387 18.09436817 19.54613207 18.09336853 21.11412048 C18.08954334 25.24876503 18.07971306 29.38337466 18.06866455 33.51800537 C18.05845044 37.73400398 18.05387091 41.95000822 18.04882812 46.16601562 C18.03809079 54.44402647 18.02101436 62.7220089 18 71 C19.29736084 70.99476318 20.59472168 70.98952637 21.93139648 70.98413086 C26.72647415 70.96608531 31.5215488 70.95456963 36.31665039 70.94506836 C38.39543156 70.94002712 40.47420916 70.93319426 42.55297852 70.92456055 C45.53402586 70.91248578 48.51502649 70.90676976 51.49609375 70.90234375 C52.89921059 70.89460182 52.89921059 70.89460182 54.33067322 70.88670349 C55.19149002 70.88662796 56.05230682 70.88655243 56.93920898 70.88647461 C57.70087875 70.884254 58.46254852 70.88203339 59.24729919 70.87974548 C61 71 61 71 62 72 C62 76.62 62 81.24 62 86 C41.54 86 21.08 86 0 86 C0 57.62 0 29.24 0 0 Z " fill="#011E88" transform="translate(434,800)"/>
<path d="M0 0 C5.61 0 11.22 0 17 0 C17 28.71 17 57.42 17 87 C11.39 87 5.78 87 0 87 C-1.76127717 85.23872283 -1.12614756 82.9133542 -1.13552856 80.56704712 C-1.13350433 79.78832245 -1.1314801 79.00959778 -1.12939453 78.20727539 C-1.13114685 77.39104202 -1.13289917 76.57480865 -1.13470459 75.73384094 C-1.13912436 73.02175807 -1.13618441 70.30973984 -1.1328125 67.59765625 C-1.13348557 65.72057584 -1.13445562 63.84349552 -1.13571167 61.96641541 C-1.13718886 58.02618584 -1.13503364 54.0859789 -1.13037109 50.14575195 C-1.12467771 45.08687314 -1.1279502 40.02804742 -1.13394356 34.96917057 C-1.13755193 31.09081114 -1.13640924 27.21246435 -1.13381577 23.33410454 C-1.13314706 21.46852042 -1.13397297 19.60293516 -1.13629532 17.73735237 C-1.13882591 15.13224357 -1.13497528 12.52722147 -1.12939453 9.92211914 C-1.13141876 9.1454187 -1.13344299 8.36871826 -1.13552856 7.56848145 C-1.11426338 2.22852675 -1.11426338 2.22852675 0 0 Z " fill="#011E88" transform="translate(424,922)"/>
<path d="M0 0 C5.61 0 11.22 0 17 0 C17 28.38 17 56.76 17 86 C13.30691024 87.23102992 10.11949288 86.87175152 6.3125 86.5625 C5.61060547 86.51029297 4.90871094 86.45808594 4.18554688 86.40429688 C2.45661946 86.27492135 0.72824645 86.13817469 -1 86 C-1.02312283 74.93465142 -1.04091478 63.86930855 -1.05181217 52.80394077 C-1.05704113 47.66640434 -1.06413901 42.52888437 -1.07543945 37.39135742 C-1.08626787 32.4376859 -1.09227674 27.48403026 -1.09487724 22.53034782 C-1.09673157 20.63602384 -1.10035234 18.74170076 -1.10573006 16.8473835 C-1.11293989 14.20365614 -1.11399097 11.55999529 -1.11352539 8.91625977 C-1.11712067 8.12504227 -1.12071594 7.33382477 -1.12442017 6.51863098 C-1.11405216 1.11405216 -1.11405216 1.11405216 0 0 Z " fill="#011E88" transform="translate(513,800)"/>
<path d="M0 0 C5.61 0 11.22 0 17 0 C17 28.38 17 56.76 17 86 C11.06 86 5.12 86 -1 86 C-1.02255049 74.93464779 -1.04091478 63.86931072 -1.05181217 52.80394077 C-1.05704113 47.66640434 -1.06413901 42.52888437 -1.07543945 37.39135742 C-1.08626787 32.4376859 -1.09227674 27.48403026 -1.09487724 22.53034782 C-1.09673157 20.63602384 -1.10035234 18.74170076 -1.10573006 16.8473835 C-1.11293989 14.20365614 -1.11399097 11.55999529 -1.11352539 8.91625977 C-1.11712067 8.12504227 -1.12071594 7.33382477 -1.12442017 6.51863098 C-1.11405216 1.11405216 -1.11405216 1.11405216 0 0 Z " fill="#011E88" transform="translate(677,800)"/>
</svg>
